<svg width="1280" height="1148" viewBox="0 0 1280 1148" fill="none" xmlns="http://www.w3.org/2000/svg">
<g filter="url(#filter0_d_194_108)">
<path d="M1550.71 -1916.39C1810.65 -1893.28 1938.02 -1588.08 1771.62 -1387.05L1758.74 -1371.49C1658.12 -1249.94 1667.97 -1071.43 1781.35 -961.686C1935.52 -812.465 1889.41 -554.597 1693.08 -468.057L1413.04 -344.622C1261.29 -277.731 1157.97 -133.553 1143.41 31.6461L1139.94 70.9461C1118.62 312.749 911.187 495.203 668.641 485.491L381.094 473.978C247.055 468.611 117.481 522.685 27.02 621.741L-167.042 834.24C-330.733 1013.48 -606.328 1032.61 -793.208 877.692L-823.582 852.514C-951.257 746.676 -1126.42 718.713 -1280.7 779.537L-1565.4 891.778C-1765.01 970.47 -1980.75 821.88 -1978.39 607.337C-1976.65 449.553 -2096.61 316.998 -2253.78 303.025L-2273.91 301.236C-2533.84 278.127 -2661.21 -27.0801 -2494.81 -228.105L-2481.93 -243.668C-2381.32 -365.222 -2391.17 -543.727 -2504.55 -653.47C-2658.72 -802.692 -2612.6 -1060.56 -2416.27 -1147.1L-2136.24 -1270.53C-1984.49 -1337.43 -1881.17 -1481.6 -1866.6 -1646.8L-1863.14 -1686.1C-1841.82 -1927.91 -1634.38 -2110.36 -1391.84 -2100.65L-1104.29 -2089.13C-970.249 -2083.77 -840.676 -2137.84 -750.214 -2236.9L-556.153 -2449.4C-392.461 -2628.64 -116.867 -2647.76 70.0135 -2492.85L100.387 -2467.67C228.063 -2361.83 403.222 -2333.87 557.505 -2394.69L842.208 -2506.93C1041.81 -2585.63 1257.55 -2437.04 1255.19 -2222.49C1253.46 -2064.71 1373.42 -1932.15 1530.59 -1918.18L1550.71 -1916.39Z" fill="#FED8CB"/>
</g>
<defs>
<filter id="filter0_d_194_108" x="-2600.63" y="-2597.53" width="4478.07" height="3744.9" filterUnits="userSpaceOnUse" color-interpolation-filters="sRGB">
<feFlood flood-opacity="0" result="BackgroundImageFix"/>
<feColorMatrix in="SourceAlpha" type="matrix" values="0 0 0 0 0 0 0 0 0 0 0 0 0 0 0 0 0 0 127 0" result="hardAlpha"/>
<feOffset dy="161"/>
<feGaussianBlur stdDeviation="2"/>
<feComposite in2="hardAlpha" operator="out"/>
<feColorMatrix type="matrix" values="0 0 0 0 0.980392 0 0 0 0 0.941176 0 0 0 0 0.917647 0 0 0 1 0"/>
<feBlend mode="normal" in2="BackgroundImageFix" result="effect1_dropShadow_194_108"/>
<feBlend mode="normal" in="SourceGraphic" in2="effect1_dropShadow_194_108" result="shape"/>
</filter>
</defs>
</svg>
