<!DOCTYPE svg PUBLIC "-//W3C//DTD SVG 1.1//EN" "http://www.w3.org/Graphics/SVG/1.1/DTD/svg11.dtd">
<!-- Uploaded to: SVG Repo, www.svgrepo.com, Transformed by: SVG Repo Mixer Tools -->
<svg fill="#000000" width="64px" height="64px" viewBox="0 0 24 24" xmlns="http://www.w3.org/2000/svg">
<g id="SVGRepo_bgCarrier" stroke-width="0"/>
<g id="SVGRepo_tracerCarrier" stroke-linecap="round" stroke-linejoin="round"/>
<g id="SVGRepo_iconCarrier">
<path d="M8,2A1,1,0,0,1,8,4H4V8A1,1,0,0,1,2,8V3A1,1,0,0,1,3,2ZM8,20H4V16a1,1,0,0,0-2,0v5a1,1,0,0,0,1,1H8a1,1,0,0,0,0-2Zm13-5a1,1,0,0,0-1,1v4H16a1,1,0,0,0,0,2h5a1,1,0,0,0,1-1V16A1,1,0,0,0,21,15Zm0-6a1,1,0,0,0,1-1V3a1,1,0,0,0-1-1H16a1,1,0,0,0,0,2h4V8A1,1,0,0,0,21,9Zm1,2H2a1,1,0,0,0,0,2H22a1,1,0,0,0,0-2Z"/>
</g>
</svg>