<svg width="1280" height="1156" viewBox="0 0 1280 1156" fill="none" xmlns="http://www.w3.org/2000/svg">
<g filter="url(#filter0_d_194_115)">
<path d="M3167.47 846.818C3427.4 869.927 3554.77 1175.13 3388.37 1376.16L3375.49 1391.72C3274.88 1513.28 3284.73 1691.78 3398.11 1801.52C3552.27 1950.75 3506.16 2208.61 3309.83 2295.15L3029.8 2418.59C2878.05 2485.48 2774.73 2629.66 2760.16 2794.86L2756.69 2834.16C2735.37 3075.96 2527.94 3258.41 2285.39 3248.7L1997.85 3237.19C1863.81 3231.82 1734.23 3285.9 1643.77 3384.95L1449.71 3597.45C1286.02 3776.69 1010.43 3795.82 823.545 3640.9L793.171 3615.72C665.496 3509.89 490.337 3481.92 336.054 3542.75L51.3505 3654.99C-148.254 3733.68 -363.994 3585.09 -361.634 3370.55C-359.898 3212.76 -479.858 3080.21 -637.032 3066.24L-657.156 3064.45C-917.087 3041.34 -1044.46 2736.13 -878.061 2535.11L-865.178 2519.54C-764.564 2397.99 -774.416 2219.48 -887.797 2109.74C-1041.96 1960.52 -995.847 1702.65 -799.518 1616.11L-519.486 1492.68C-367.735 1425.79 -264.415 1281.61 -249.849 1116.41L-246.383 1077.11C-225.062 835.306 -17.6286 652.852 224.918 662.563L512.465 674.076C646.504 679.443 776.077 625.369 866.539 526.313L1060.6 313.814C1224.29 134.571 1499.89 115.446 1686.77 270.362L1717.14 295.54C1844.82 401.378 2019.97 429.342 2174.26 368.517L2458.96 256.276C2658.57 177.584 2874.31 326.174 2871.95 540.718C2870.21 698.501 2990.17 831.056 3147.34 845.029L3167.47 846.818Z" fill="#FED8CB"/>
</g>
<defs>
<filter id="filter0_d_194_115" x="-983.881" y="0.681274" width="4478.07" height="3744.9" filterUnits="userSpaceOnUse" color-interpolation-filters="sRGB">
<feFlood flood-opacity="0" result="BackgroundImageFix"/>
<feColorMatrix in="SourceAlpha" type="matrix" values="0 0 0 0 0 0 0 0 0 0 0 0 0 0 0 0 0 0 127 0" result="hardAlpha"/>
<feOffset dy="-161"/>
<feGaussianBlur stdDeviation="2"/>
<feComposite in2="hardAlpha" operator="out"/>
<feColorMatrix type="matrix" values="0 0 0 0 0.980392 0 0 0 0 0.941176 0 0 0 0 0.917647 0 0 0 1 0"/>
<feBlend mode="normal" in2="BackgroundImageFix" result="effect1_dropShadow_194_115"/>
<feBlend mode="normal" in="SourceGraphic" in2="effect1_dropShadow_194_115" result="shape"/>
</filter>
</defs>
</svg>
